<svg width="15" height="14" viewBox="0 0 15 14" fill="none" xmlns="http://www.w3.org/2000/svg">
<path fill-rule="evenodd" clip-rule="evenodd" d="M5.15922 9.54444C5.15922 9.13453 5.48919 8.80186 5.89575 8.80186H8.84188C9.24845 8.80186 9.57842 9.13453 9.57842 9.54444C9.57842 9.95436 9.24845 10.287 8.84188 10.287H5.89575C5.48919 10.287 5.15922 9.95436 5.15922 9.54444ZM11.3903 11.9103C11.324 12.2608 11.0205 12.5148 10.6663 12.5148H4.08462C3.72519 12.5148 3.41732 12.2527 3.3584 11.894L2.47898 6.57408H12.392L11.3903 11.9103ZM13.9976 5.08891H12.5245L9.92974 0.423212C9.72572 0.068261 9.2757 -0.120363 8.9229 0.0845968C8.57084 0.289549 8.45005 0.844266 8.65407 1.19922L10.8239 5.08891H3.91375L6.08357 1.16581C6.28759 0.81085 6.1668 0.289549 5.81474 0.0845968C5.46194 -0.120363 5.01192 0.101677 4.8079 0.456635L2.21309 5.08891H0.740027C-0.141603 5.08891 -0.43327 6.57408 0.985292 6.57408L2.0076 12.7591C2.12618 13.475 2.74119 14 3.46078 14H11.2769C11.9965 14 12.6115 13.475 12.73 12.7591L13.7523 6.57408C15.1716 6.57408 14.8763 5.08891 13.9976 5.08891Z" fill="white"/>
</svg>
