<svg width="24" height="24" viewBox="0 0 24 24" fill="none" xmlns="http://www.w3.org/2000/svg">
<g clip-path="url(#clip0_38_1889)">
<path d="M22.5 21H1.5V22.5H22.5V21Z" fill="white"/>
<path d="M20.25 8.24999C20.4489 8.24999 20.6397 8.17097 20.7803 8.03032C20.921 7.88966 21 7.6989 21 7.49999V5.24999C20.9999 5.09585 20.9524 4.94548 20.8638 4.81933C20.7752 4.69319 20.65 4.59739 20.505 4.54499L12.255 1.54499C12.0902 1.48541 11.9098 1.48541 11.745 1.54499L3.495 4.54499C3.35005 4.59739 3.22476 4.69319 3.13619 4.81933C3.04762 4.94548 3.00007 5.09585 3 5.24999V7.49999C3 7.6989 3.07902 7.88966 3.21967 8.03032C3.36032 8.17097 3.55109 8.24999 3.75 8.24999H4.5V18H3V19.5H21V18H19.5V8.24999H20.25ZM4.5 5.77499L12 3.04499L19.5 5.77499V6.74999H4.5V5.77499ZM13.5 18H10.5V8.24999H13.5V18ZM6 8.24999H9V18H6V8.24999ZM18 18H15V8.24999H18V18Z" fill="white"/>
</g>
<defs>
<clipPath id="clip0_38_1889">
<rect width="24" height="24" fill="white"/>
</clipPath>
</defs>
</svg>
