<svg width="14" height="14" viewBox="0 0 14 14" fill="none" xmlns="http://www.w3.org/2000/svg">
<path fill-rule="evenodd" clip-rule="evenodd" d="M12.6 2.09999C12.6 1.71359 12.2864 1.4 11.9 1.4H2.09999C1.71359 1.4 1.4 1.71359 1.4 2.09999V3.49999C1.4 3.88639 1.71359 4.19999 2.09999 4.19999H11.9C12.2864 4.19999 12.6 3.88639 12.6 3.49999V2.09999ZM14 1.4V4.19999C14 4.97349 13.3728 5.59998 12.6 5.59998H1.4C0.626498 5.59998 0 4.97349 0 4.19999V1.4C0 0.626498 0.626498 0 1.4 0H12.6C13.3728 0 14 0.626498 14 1.4ZM10.4643 10.1248C10.738 10.3978 10.738 10.8416 10.465 11.1153C8.46927 13.1103 8.38527 13.1943 7.98908 13.5905C7.44308 14.1365 6.55688 14.1365 6.01088 13.5905L3.53499 11.1146C3.26129 10.8416 3.26129 10.3985 3.53499 10.1248C3.80799 9.85177 4.25109 9.85177 4.52479 10.1248L5.70218 11.3029C5.92268 11.5234 6.29998 11.3673 6.29998 11.0551V7.45988C6.29998 7.07278 6.61358 6.75988 6.99998 6.75988C7.38638 6.75988 7.69998 7.07278 7.69998 7.45988V11.0537C7.69998 11.3659 8.07728 11.522 8.29778 11.3015L9.47447 10.1248C9.74817 9.85107 10.1913 9.85107 10.4643 10.1248Z" fill="black"/>
</svg>
