<svg width="16" height="16" viewBox="0 0 16 16" fill="none" xmlns="http://www.w3.org/2000/svg">
<path fill-rule="evenodd" clip-rule="evenodd" d="M8.89596 15.7658C8.58316 16.0781 8.07676 16.0781 7.76476 15.7658C7.45196 15.4535 7.45196 14.948 7.76476 14.6365L12.9168 9.49319C13.1688 9.24161 12.9904 8.81193 12.6344 8.81193H0.799955C0.358356 8.81193 -4.3869e-05 8.44695 -4.3869e-05 8.00609V8.0029C-4.3869e-05 7.56204 0.358356 7.21463 0.799955 7.21463H12.6344C12.9904 7.21463 13.1688 6.78415 12.9168 6.53258L7.73996 1.3637C7.42716 1.05143 7.42716 0.545882 7.73996 0.23361C8.05196 -0.07787 8.55836 -0.07787 8.87116 0.23361L15.5312 6.88319C16.156 7.50694 16.156 8.51803 15.5312 9.14178C15.3688 9.3039 8.76716 15.8944 8.89596 15.7658Z" fill="black"/>
</svg>
