<svg width="15" height="15" viewBox="0 0 15 15" fill="none" xmlns="http://www.w3.org/2000/svg">
<path fill-rule="evenodd" clip-rule="evenodd" d="M6.6598 14.7804C6.95305 15.0732 7.4278 15.0732 7.7203 14.7804C8.01355 14.4877 8.01355 14.0137 7.7203 13.7217L2.89031 8.89985C2.65406 8.664 2.82131 8.26117 3.15506 8.26117H14.2498C14.6638 8.26117 14.9998 7.919 14.9998 7.5057V7.50271C14.9998 7.0894 14.6638 6.7637 14.2498 6.7637H3.15506C2.82131 6.7637 2.65406 6.36014 2.89031 6.12428L7.74355 1.27847C8.0368 0.98571 8.0368 0.511764 7.74355 0.219009C7.45105 -0.073003 6.9763 -0.073003 6.68305 0.219009L0.439312 6.45298C-0.146437 7.03774 -0.146437 7.98564 0.439312 8.5704C0.591562 8.72239 6.78055 14.901 6.6598 14.7804Z" fill="#32D74B"/>
</svg>
