<svg width="68" height="14" viewBox="0 0 68 14" fill="none" xmlns="http://www.w3.org/2000/svg">
<path opacity="0.36" fill-rule="evenodd" clip-rule="evenodd" d="M46.5894 1.25H61.4106C62.6587 1.25 63.1113 1.37996 63.5676 1.62399C64.0239 1.86802 64.382 2.22612 64.626 2.68242C64.87 3.13871 65 3.59131 65 4.83944V9.16056C65 10.4087 64.87 10.8613 64.626 11.3176C64.382 11.7739 64.0239 12.132 63.5676 12.376C63.1113 12.62 62.6587 12.75 61.4106 12.75H46.5894C45.3413 12.75 44.8887 12.62 44.4324 12.376C43.9761 12.132 43.618 11.7739 43.374 11.3176C43.13 10.8613 43 10.4087 43 9.16056V4.83944C43 3.59131 43.13 3.13871 43.374 2.68242C43.618 2.22612 43.9761 1.86802 44.4324 1.62399C44.8887 1.37996 45.3413 1.25 46.5894 1.25ZM46.5894 2.25C45.6025 2.25 45.2579 2.31654 44.904 2.5058C44.622 2.65663 44.4066 2.87199 44.2558 3.15401C44.0665 3.5079 44 3.85246 44 4.83944V9.16056C44 10.1475 44.0665 10.4921 44.2558 10.846C44.4066 11.128 44.622 11.3434 44.904 11.4942C45.2579 11.6835 45.6025 11.75 46.5894 11.75H61.4106C62.3975 11.75 62.7421 11.6835 63.096 11.4942C63.378 11.3434 63.5934 11.128 63.7442 10.846C63.9335 10.4921 64 10.1475 64 9.16056V4.83944C64 3.85246 63.9335 3.5079 63.7442 3.15401C63.5934 2.87199 63.378 2.65663 63.096 2.5058C62.7421 2.31654 62.3975 2.25 61.4106 2.25H46.5894ZM67.5 6.94C67.5 8.17657 66 8.94 66 8.94V4.94C66 4.94 67.5 5.70343 67.5 6.94Z" fill="white"/>
<rect x="45" y="3.16667" width="18" height="7.66667" rx="1.6" fill="white"/>
<path fill-rule="evenodd" clip-rule="evenodd" d="M30.3005 3.76636C32.5349 3.76646 34.6839 4.62501 36.3033 6.16457C36.4252 6.28343 36.6201 6.28193 36.7402 6.16121L37.9059 4.98479C37.9667 4.92356 38.0006 4.84062 38.0001 4.75433C37.9996 4.66803 37.9647 4.5855 37.9032 4.52498C33.6529 0.451674 26.9475 0.451674 22.6972 4.52498C22.6356 4.58545 22.6007 4.66796 22.6001 4.75426C22.5995 4.84055 22.6334 4.92352 22.6941 4.98479L23.8601 6.16121C23.9802 6.28211 24.1752 6.28361 24.2971 6.16457C25.9167 4.62491 28.0659 3.76636 30.3005 3.76636ZM30.3005 7.59375C31.5282 7.59367 32.712 8.04999 33.622 8.87403C33.7451 8.99097 33.939 8.98844 34.059 8.86831L35.2233 7.69189C35.2846 7.63019 35.3187 7.54648 35.3178 7.45949C35.3169 7.37251 35.2812 7.28951 35.2186 7.22906C32.4474 4.65131 28.1559 4.65131 25.3848 7.22906C25.3222 7.28951 25.2865 7.37255 25.2857 7.45956C25.2848 7.54657 25.319 7.63028 25.3804 7.69189L26.5444 8.86831C26.6644 8.98844 26.8583 8.99097 26.9813 8.87403C27.8908 8.05053 29.0737 7.59426 30.3005 7.59375ZM32.5381 10.4013C32.6003 10.3402 32.6346 10.2561 32.6328 10.1689C32.6311 10.0817 32.5934 9.99905 32.5286 9.94053C31.2424 8.85263 29.3586 8.85263 28.0724 9.94053C28.0076 9.999 27.9699 10.0816 27.968 10.1688C27.9662 10.2561 28.0004 10.3402 28.0626 10.4013L30.077 12.4339C30.136 12.4936 30.2165 12.5272 30.3005 12.5272C30.3845 12.5272 30.465 12.4936 30.524 12.4339L32.5381 10.4013Z" fill="white"/>
<path fill-rule="evenodd" clip-rule="evenodd" d="M14.623 2.61589C14.6 2.7318 14.6 2.8712 14.6 3.14999V10.85C14.6 11.1288 14.6 11.2682 14.623 11.3841C14.7177 11.8601 15.0899 12.2322 15.5659 12.3269C15.6818 12.35 15.8212 12.35 16.1 12.35C16.3788 12.35 16.5182 12.35 16.6341 12.3269C17.1101 12.2322 17.4822 11.8601 17.5769 11.3841C17.6 11.2682 17.6 11.1288 17.6 10.85V3.14999C17.6 2.8712 17.6 2.7318 17.5769 2.61589C17.4822 2.13986 17.1101 1.76774 16.6341 1.67305C16.5182 1.64999 16.3788 1.64999 16.1 1.64999C15.8212 1.64999 15.6818 1.64999 15.5659 1.67305C15.0899 1.76774 14.7177 2.13986 14.623 2.61589ZM9.89999 5.55C9.89999 5.2712 9.89999 5.13181 9.92305 5.01589C10.0177 4.53986 10.3899 4.16774 10.8659 4.07305C10.9818 4.05 11.1212 4.05 11.4 4.05C11.6788 4.05 11.8182 4.05 11.9341 4.07305C12.4101 4.16774 12.7822 4.53986 12.8769 5.01589C12.9 5.13181 12.9 5.2712 12.9 5.55V10.85C12.9 11.1288 12.9 11.2682 12.8769 11.3841C12.7822 11.8601 12.4101 12.2323 11.9341 12.3269C11.8182 12.35 11.6788 12.35 11.4 12.35C11.1212 12.35 10.9818 12.35 10.8659 12.3269C10.3899 12.2323 10.0177 11.8601 9.92305 11.3841C9.89999 11.2682 9.89999 11.1288 9.89999 10.85V5.55ZM5.32305 7.31589C5.29999 7.43181 5.29999 7.57121 5.29999 7.85V10.85C5.29999 11.1288 5.29999 11.2682 5.32305 11.3841C5.41773 11.8601 5.78985 12.2323 6.26588 12.3269C6.3818 12.35 6.52119 12.35 6.79999 12.35C7.07878 12.35 7.21818 12.35 7.3341 12.3269C7.81012 12.2323 8.18224 11.8601 8.27693 11.3841C8.29999 11.2682 8.29999 11.1288 8.29999 10.85V7.85C8.29999 7.57121 8.29999 7.43181 8.27693 7.31589C8.18224 6.83986 7.81012 6.46774 7.3341 6.37306C7.21818 6.35 7.07878 6.35 6.79999 6.35C6.52119 6.35 6.3818 6.35 6.26588 6.37306C5.78985 6.46774 5.41773 6.83986 5.32305 7.31589ZM0.523058 9.31589C0.5 9.43181 0.5 9.57121 0.5 9.85V10.85C0.5 11.1288 0.5 11.2682 0.523058 11.3841C0.617746 11.8601 0.989863 12.2323 1.46589 12.3269C1.58181 12.35 1.72121 12.35 2 12.35C2.27879 12.35 2.41819 12.35 2.53411 12.3269C3.01014 12.2323 3.38225 11.8601 3.47694 11.3841C3.5 11.2682 3.5 11.1288 3.5 10.85V9.85C3.5 9.57121 3.5 9.43181 3.47694 9.31589C3.38225 8.83986 3.01014 8.46774 2.53411 8.37306C2.41819 8.35 2.27879 8.35 2 8.35C1.72121 8.35 1.58181 8.35 1.46589 8.37306C0.989863 8.46774 0.617746 8.83986 0.523058 9.31589Z" fill="white"/>
</svg>
