<svg width="14" height="14" viewBox="0 0 14 14" fill="none" xmlns="http://www.w3.org/2000/svg">
<path fill-rule="evenodd" clip-rule="evenodd" d="M12.6 10.85C12.6 11.0432 12.4432 11.2 12.25 11.2H11.9V8.39997H2.09999V11.2H1.74999C1.5568 11.2 1.4 11.0432 1.4 10.85V6.29998C1.4 5.91358 1.71359 5.59998 2.09999 5.59998H11.9C12.2864 5.59998 12.6 5.91358 12.6 6.29998V10.85ZM10.5 11.9C10.5 12.2864 10.1864 12.6 9.79997 12.6H4.19999C3.81359 12.6 3.49999 12.2864 3.49999 11.9V9.79997H10.5V11.9ZM2.79999 2.09999C2.79999 1.71359 3.11359 1.4 3.49999 1.4H10.5C10.8864 1.4 11.2 1.71359 11.2 2.09999V4.19999H2.79999V2.09999ZM12.6 4.19999V1.4C12.6 0.626498 11.9735 0 11.2 0H2.79999C2.02649 0 1.4 0.626498 1.4 1.4V4.19999C0.626498 4.19999 0 4.82649 0 5.59998V11.2C0 11.9728 0.626498 12.6 1.4 12.6H2.09999C2.09999 13.3728 2.72649 14 3.49999 14H10.5C11.2735 14 11.9 13.3728 11.9 12.6H12.6C13.3735 12.6 14 11.9728 14 11.2V5.59998C14 4.82649 13.3735 4.19999 12.6 4.19999Z" fill="black"/>
</svg>
