<svg width="29" height="12" viewBox="0 0 29 12" fill="none" xmlns="http://www.w3.org/2000/svg">
<path d="M3.93577 0C1.63746 0 0 1.57137 0 3.72283V3.73751C0 5.74946 1.42451 7.23271 3.45849 7.23271C4.91237 7.23271 5.83757 6.49109 6.22674 5.654H6.3736C6.3736 5.73477 6.36626 5.81554 6.36626 5.89631C6.28549 7.92294 5.57323 9.56774 3.89171 9.56774C2.95917 9.56774 2.30566 9.08311 2.02663 8.34149L2.0046 8.26806H0.139514L0.1542 8.34883C0.491971 9.9716 1.94586 11.1244 3.89171 11.1244C6.55717 11.1244 8.16526 9.00968 8.16526 5.44106V5.42637C8.16526 1.60809 6.19737 0 3.93577 0ZM3.92843 5.77883C2.7242 5.77883 1.8504 4.89769 1.8504 3.67143V3.65674C1.8504 2.47454 2.78294 1.542 3.95046 1.542C5.12531 1.542 6.04317 2.48923 6.04317 3.7008V3.71549C6.04317 4.91237 5.12531 5.77883 3.92843 5.77883Z" fill="white"/>
<path d="M11.3335 3.99451C12.009 3.99451 12.501 3.48051 12.501 2.83434C12.501 2.18083 12.009 1.67417 11.3335 1.67417C10.6653 1.67417 10.166 2.18083 10.166 2.83434C10.166 3.48051 10.6653 3.99451 11.3335 3.99451ZM11.3335 9.44291C12.009 9.44291 12.501 8.93626 12.501 8.28274C12.501 7.62923 12.009 7.12257 11.3335 7.12257C10.6653 7.12257 10.166 7.62923 10.166 8.28274C10.166 8.93626 10.6653 9.44291 11.3335 9.44291Z" fill="white"/>
<path d="M19.6417 10.8601H21.4554V8.82611H22.8799V7.26209H21.4554V0.264343H18.7753C17.3361 2.45251 15.8308 4.89034 14.4577 7.27677V8.82611H19.6417V10.8601ZM16.22 7.30614V7.196C17.248 5.397 18.4742 3.43646 19.561 1.77697H19.6711V7.30614H16.22Z" fill="white"/>
<path d="M27.1055 10.8601H29V0.264343H27.1129L24.3446 2.2102V3.99451L26.9807 2.12943H27.1055V10.8601Z" fill="white"/>
</svg>
