<svg width="18" height="17" viewBox="0 0 18 17" fill="none" xmlns="http://www.w3.org/2000/svg">
<path fill-rule="evenodd" clip-rule="evenodd" d="M15.2 1.8C15.7523 1.8 16.2 2.24771 16.2 2.8V13.4C16.2 13.9523 15.7523 14.4 15.2 14.4H6.4C5.84772 14.4 5.4 13.9523 5.4 13.4V11.7C5.4 11.2029 4.99706 10.8 4.5 10.8C4.00294 10.8 3.6 11.2029 3.6 11.7V15.2C3.6 15.7523 4.04772 16.2 4.6 16.2H17C17.5523 16.2 18 15.7523 18 15.2V1C18 0.447715 17.5523 0 17 0H4.6C4.04772 0 3.6 0.447716 3.6 1V4.5C3.6 4.99706 4.00294 5.4 4.5 5.4C4.99706 5.4 5.4 4.99706 5.4 4.5V2.8C5.4 2.24772 5.84772 1.8 6.4 1.8H15.2ZM9.33048 11.9184C9.68195 12.2699 10.2518 12.2699 10.6033 11.9184L13.7145 8.80711C14.105 8.41658 14.105 7.78342 13.7145 7.3929L10.6033 4.28166C10.2518 3.93019 9.68195 3.93019 9.33048 4.28167C8.97901 4.63314 8.97901 5.20298 9.33048 5.55445L10.976 7.2H0.9C0.402944 7.2 0 7.60295 0 8.1C0 8.59706 0.402943 9 0.899999 9H10.9761L9.33048 10.6457C8.97901 10.9971 8.97901 11.567 9.33048 11.9184Z" fill="black"/>
</svg>
