<svg width="15" height="15" viewBox="0 0 15 15" fill="none" xmlns="http://www.w3.org/2000/svg">
<path fill-rule="evenodd" clip-rule="evenodd" d="M13.5 6.75C13.5 6.336 13.164 6 12.75 6H2.25C1.836 6 1.5 6.336 1.5 6.75V12.75C1.5 13.164 1.836 13.5 2.25 13.5H3.75C4.164 13.5 4.5 13.164 4.5 12.75C4.5 12.336 4.836 12 5.25 12H9.75001C10.164 12 10.5 12.336 10.5 12.75C10.5 13.164 10.836 13.5 11.25 13.5H12.75C13.164 13.5 13.5 13.164 13.5 12.75V6.75ZM15 6V13.5C15 14.3288 14.3288 15 13.5 15H10.5C9.67126 15 9.00001 14.3288 9.00001 13.5H6C6 14.3288 5.32875 15 4.5 15H1.5C0.671251 15 0 14.3288 0 13.5V6C0 5.17125 0.671251 4.5 1.5 4.5H6.75V3C6.75 2.17125 7.42126 1.5 8.25001 1.5H9.75001C10.164 1.5 10.5 1.164 10.5 0.750001V0H12V1.5C12 2.32875 11.3288 3 10.5 3H9.00001C8.58601 3 8.25001 3.336 8.25001 3.75V4.5H13.5C14.3288 4.5 15 5.17125 15 6ZM11.25 7.5H9.75001C9.33601 7.5 9.00001 7.836 9.00001 8.25001V9.00001V9.75001C9.00001 10.164 9.33601 10.5 9.75001 10.5H11.25C11.664 10.5 12 10.164 12 9.75001V9.00001V8.25001C12 7.836 11.664 7.5 11.25 7.5ZM6 8.25001V9.00001V9.75001C6 10.164 5.664 10.5 5.25 10.5H3.75C3.336 10.5 3 10.164 3 9.75001V9.00001V8.25001C3 7.836 3.336 7.5 3.75 7.5H5.25C5.664 7.5 6 7.836 6 8.25001Z" fill="white"/>
</svg>
