<svg width="15" height="15" viewBox="0 0 15 15" fill="none" xmlns="http://www.w3.org/2000/svg">
<path fill-rule="evenodd" clip-rule="evenodd" d="M13.4784 5.48864C13.4784 5.77106 13.2495 6 12.9671 6H2.00897C1.72655 6 1.4976 5.77106 1.4976 5.48864V3.72825C1.4976 3.32625 1.82333 3 2.22469 3H2.48385C2.76626 3 2.99521 3.22895 2.99521 3.51137V3.98864C2.99521 4.27106 3.22416 4.5 3.50657 4.5H3.98145C4.26387 4.5 4.49281 4.27106 4.49281 3.98864V3.51137C4.49281 3.22895 4.72176 3 5.00418 3H9.97187C10.2543 3 10.4832 3.22895 10.4832 3.51137V3.98864C10.4832 4.27106 10.7122 4.5 10.9946 4.5H11.4695C11.7519 4.5 11.9808 4.27106 11.9808 3.98864V3.51137C11.9808 3.22895 12.2098 3 12.4922 3H12.7296C13.143 3 13.4784 3.336 13.4784 3.75V5.48864ZM13.4784 12.75C13.4784 13.1625 13.1415 13.5 12.7296 13.5H2.24641C1.83307 13.5 1.4976 13.164 1.4976 12.75V8.01137C1.4976 7.72895 1.72655 7.5 2.00897 7.5H12.9671C13.2495 7.5 13.4784 7.72895 13.4784 8.01137V12.75ZM0.0479234 13.3208C0.0479234 14.1488 0.766025 15 1.5927 15H13.5735C14.401 15 15 14.2343 15 13.3208C15 13.029 14.976 4.02 14.976 3.531C14.976 2.07117 14.7921 1.56577 12.4927 1.50614C12.2104 1.49882 11.9808 1.27106 11.9808 0.988637V0.511364C11.9808 0.228945 11.7519 0 11.4695 0H10.9946C10.7122 0 10.4832 0.228945 10.4832 0.511364V0.988637C10.4832 1.27106 10.2543 1.5 9.97187 1.5H5.00418C4.72176 1.5 4.49281 1.27106 4.49281 0.988637V0.511364C4.49281 0.228945 4.26387 0 3.98145 0H3.50657C3.22415 0 2.99521 0.228945 2.99521 0.511364V0.988637C2.99521 1.27106 2.76626 1.5 2.48385 1.5H1.4976C0.673922 1.5 0 2.175 0 3L0.0479234 13.3208Z" fill="white"/>
</svg>
